<?xml version="1.0" encoding="utf-8"?>
<!-- Generator: Adobe Illustrator 16.0.0, SVG Export Plug-In . SVG Version: 6.00 Build 0)  -->
<!DOCTYPE svg PUBLIC "-//W3C//DTD SVG 1.1//EN" "http://www.w3.org/Graphics/SVG/1.1/DTD/svg11.dtd">
<svg version="1.1" id="Layer_1" xmlns="http://www.w3.org/2000/svg" xmlns:xlink="http://www.w3.org/1999/xlink" x="0px" y="0px"
	 width="167.186px" height="84.07px" viewBox="0 0 167.186 84.07" enable-background="new 0 0 167.186 84.07" xml:space="preserve">
<g>
	<defs>
		<rect id="SVGID_1_" width="167.186" height="84.07"/>
	</defs>
	<clipPath id="SVGID_2_">
		<use xlink:href="#SVGID_1_"  overflow="visible"/>
	</clipPath>
	<path clip-path="url(#SVGID_2_)" fill="#676767" d="M31.909,68.511v-1.989v-1.99h1.166h1.328v-2.443v-3.926h2.493h2.494v3.926
		v2.443h1.866h1.459v1.99v1.989h-1.459H39.39v5.609v5.538h1.866h1.459v2.06v1.99h-2.589H37.13c-0.79,0-1.472-0.289-1.956-0.773
		c-0.484-0.483-0.771-1.162-0.771-1.939v-6.242v-6.242h-1.328H31.909z"/>
</g>
<rect x="12.792" y="29.081" fill="#676767" width="4.987" height="29.081"/>
<g>
	<defs>
		<rect id="SVGID_3_" width="167.186" height="84.07"/>
	</defs>
	<clipPath id="SVGID_4_">
		<use xlink:href="#SVGID_3_"  overflow="visible"/>
	</clipPath>
	<path clip-path="url(#SVGID_4_)" fill="#676767" d="M5.095,13.896h8.935c-0.574-2.714-2.297-4.307-4.485-4.307
		C7.319,9.59,5.633,11.183,5.095,13.896 M19.017,17.297H5.023c0.394,3.039,2.152,4.85,4.521,4.85c1.794,0,3.193-1.122,3.875-2.75
		h5.13c-1.04,3.727-4.341,6.513-9.005,6.513C3.982,25.909,0,21.784,0,15.958s3.982-9.949,9.544-9.949
		c5.597,0,9.544,4.088,9.544,9.949C19.088,16.211,19.088,16.79,19.017,17.297"/>
	<path clip-path="url(#SVGID_4_)" fill="#676767" d="M25.797,42.977h8.934c-0.574-2.714-2.296-4.306-4.485-4.306
		C28.022,38.671,26.336,40.263,25.797,42.977 M39.719,46.378H25.727c0.394,3.039,2.152,4.849,4.52,4.849
		c1.795,0,3.194-1.122,3.876-2.75h5.13c-1.04,3.728-4.341,6.514-9.006,6.514c-5.561,0-9.544-4.125-9.544-9.951
		c0-5.825,3.983-9.95,9.544-9.95c5.598,0,9.545,4.088,9.545,9.95C39.792,45.292,39.792,45.871,39.719,46.378"/>
</g>
<polygon fill="#676767" points="22.012,0 22.012,29.081 26.999,29.081 26.999,21.156 29.655,21.156 33.924,29.081 39.377,29.081 
	39.377,28.827 33.816,19.238 33.816,18.769 39.377,10.156 39.377,9.903 33.924,9.903 29.655,17.104 26.999,17.104 26.999,0 "/>
<polygon fill="#676767" points="54.52,47.849 54.52,48.319 60.081,57.908 60.081,58.162 54.628,58.162 50.358,50.237 47.703,50.237 
	47.703,58.162 42.716,58.162 42.716,29.081 47.703,29.081 47.703,46.184 50.358,46.184 54.628,38.984 60.081,38.984 60.081,39.237 
	"/>
<g>
	<defs>
		<rect id="SVGID_5_" width="167.186" height="84.07"/>
	</defs>
	<clipPath id="SVGID_6_">
		<use xlink:href="#SVGID_5_"  overflow="visible"/>
	</clipPath>
	<path clip-path="url(#SVGID_6_)" fill="#676767" d="M79.73,14.555c0-1.668-0.9-2.854-2.352-2.854c-1.433,0-2.425,1.186-2.425,2.854
		c0,1.667,0.992,2.854,2.425,2.854C78.831,17.408,79.73,16.222,79.73,14.555 M82.212,9.903v11.729c0,0.852-0.57,1.427-1.452,1.427
		h-7.147v-1.964h6.045v-3.021c-0.753,0.944-1.911,1.315-2.977,1.315c-2.407,0-4.336-2.001-4.336-4.836
		c0-2.798,1.929-4.836,4.336-4.836c1.103,0,2.297,0.407,3.05,1.426V9.903H82.212z"/>
	<path clip-path="url(#SVGID_6_)" fill="#676767" d="M86.418,13.758h4.576c-0.295-1.39-1.177-2.205-2.297-2.205
		C87.558,11.553,86.694,12.368,86.418,13.758 M93.547,15.5h-7.166c0.203,1.556,1.104,2.482,2.316,2.482
		c0.918,0,1.635-0.574,1.984-1.408h2.627c-0.532,1.908-2.223,3.335-4.611,3.335c-2.848,0-4.888-2.111-4.888-5.096
		c0-2.983,2.04-5.095,4.888-5.095c2.866,0,4.887,2.094,4.887,5.095C93.584,14.943,93.584,15.24,93.547,15.5"/>
	<path clip-path="url(#SVGID_6_)" fill="#676767" d="M95.237,9.903h2.37v1.112h0.092c0.68-0.871,1.543-1.297,2.83-1.297
		c1.966,0,3.509,1.389,3.509,3.835v6.171h-2.554v-6.021c0-1.335-0.717-1.966-1.837-1.966c-1.14,0-1.856,0.631-1.856,1.966v6.021
		h-2.554V9.903z"/>
	<path clip-path="url(#SVGID_6_)" fill="#676767" d="M108.245,13.758h4.575c-0.295-1.39-1.176-2.205-2.297-2.205
		C109.384,11.553,108.521,12.368,108.245,13.758 M115.374,15.5h-7.166c0.202,1.556,1.103,2.482,2.315,2.482
		c0.918,0,1.635-0.574,1.984-1.408h2.627c-0.531,1.908-2.223,3.335-4.611,3.335c-2.848,0-4.888-2.111-4.888-5.096
		c0-2.983,2.04-5.095,4.888-5.095c2.867,0,4.888,2.094,4.888,5.095C115.411,14.943,115.411,15.24,115.374,15.5"/>
</g>
<polygon fill="#676767" points="115.814,10.089 115.814,9.904 118.479,9.904 120.022,15.463 120.609,17.648 120.923,17.648 
	121.511,15.463 123.054,9.904 125.682,9.904 125.682,10.089 122.558,19.724 118.957,19.724 "/>
<g>
	<defs>
		<rect id="SVGID_7_" width="167.186" height="84.07"/>
	</defs>
	<clipPath id="SVGID_8_">
		<use xlink:href="#SVGID_7_"  overflow="visible"/>
	</clipPath>
	<path clip-path="url(#SVGID_8_)" fill="#676767" d="M132.607,16.13v-0.797l-2.26,0.259c-1.212,0.13-1.598,0.557-1.598,1.279
		c0,0.852,0.717,1.186,1.598,1.186C131.707,18.057,132.607,17.334,132.607,16.13 M126.195,16.982c0-1.798,1.305-2.817,3.344-3.021
		l3.068-0.314v-0.315v-0.223c0-0.853-0.568-1.538-1.671-1.538c-1.397,0-1.782,0.686-1.838,1.482h-2.462
		c0.018-2.076,1.635-3.336,4.3-3.336c2.479,0,4.097,1.26,4.097,3.521v0.296v6.188h-2.369v-1.11h-0.203
		c-0.68,0.87-1.562,1.297-2.885,1.297C127.574,19.91,126.195,18.779,126.195,16.982"/>
	<path clip-path="url(#SVGID_8_)" fill="#676767" d="M79.915,34.032c0-1.797-0.974-3.075-2.407-3.075
		c-1.415,0-2.37,1.278-2.37,3.075c0,1.798,0.955,3.076,2.37,3.076C78.941,37.108,79.915,35.83,79.915,34.032 M82.524,34.032
		c0,3.002-1.929,5.097-4.318,5.097c-1.102,0-2.26-0.391-3.013-1.354v4.502h-2.554V29.123h2.48V30.4
		c0.735-1.019,1.948-1.464,3.087-1.464C80.595,28.937,82.524,31.05,82.524,34.032"/>
	<path clip-path="url(#SVGID_8_)" fill="#676767" d="M86.438,32.977h4.574c-0.294-1.39-1.176-2.205-2.296-2.205
		C87.576,30.771,86.712,31.587,86.438,32.977 M93.566,34.718H86.4c0.201,1.557,1.103,2.483,2.315,2.483
		c0.918,0,1.636-0.575,1.984-1.408h2.627c-0.532,1.908-2.224,3.335-4.611,3.335c-2.848,0-4.888-2.112-4.888-5.096
		s2.04-5.095,4.888-5.095c2.866,0,4.888,2.094,4.888,5.095C93.604,34.162,93.604,34.459,93.566,34.718"/>
	<path clip-path="url(#SVGID_8_)" fill="#676767" d="M96.652,29.122h3.675v2.038h-2.519v7.783h-2.553v-8.431
		C95.256,29.716,95.844,29.122,96.652,29.122"/>
	<path clip-path="url(#SVGID_8_)" fill="#676767" d="M100.877,34.032c0-3.002,2.059-5.096,4.943-5.096
		c2.389,0,4.207,1.427,4.686,3.614h-2.646c-0.349-1.021-1.084-1.594-2.039-1.594c-1.434,0-2.389,1.297-2.389,3.075
		c0,1.798,0.955,3.076,2.389,3.076c0.955,0,1.727-0.611,2.057-1.611h2.646c-0.477,2.186-2.296,3.632-4.703,3.632
		C102.936,39.129,100.877,37.016,100.877,34.032"/>
	<path clip-path="url(#SVGID_8_)" fill="#676767" d="M120.867,34.7c0,2.778-1.58,4.429-4.373,4.429c-2.83,0-4.391-1.688-4.391-4.429
		v-5.577h2.554v5.946c0,1.242,0.625,2.039,1.837,2.039c1.176,0,1.819-0.648,1.819-2.039v-5.946h2.554V34.7z"/>
	<path clip-path="url(#SVGID_8_)" fill="#676767" d="M122.428,35.719h2.555c0.165,1.149,0.863,1.575,1.837,1.575
		c0.81,0,1.728-0.278,1.728-1.112c0-0.778-0.809-0.981-1.91-1.26l-0.992-0.241c-1.911-0.48-2.995-1.241-2.995-2.798
		c0-1.889,1.728-2.946,4.06-2.946c2.572,0,4.079,1.168,4.209,3.188H128.4c-0.055-0.871-0.662-1.408-1.709-1.408
		c-0.809,0-1.544,0.314-1.544,1.019s0.919,0.928,1.894,1.187l0.899,0.222c1.709,0.427,3.161,1.205,3.161,2.91
		c0,2.019-1.82,3.076-4.282,3.076C124.284,39.129,122.538,38.054,122.428,35.719"/>
	<path clip-path="url(#SVGID_8_)" fill="#676767" d="M132.277,35.719h2.554c0.165,1.149,0.862,1.575,1.837,1.575
		c0.809,0,1.727-0.278,1.727-1.112c0-0.778-0.808-0.981-1.91-1.26l-0.992-0.241c-1.911-0.48-2.995-1.241-2.995-2.798
		c0-1.889,1.728-2.946,4.062-2.946c2.571,0,4.078,1.168,4.207,3.188h-2.518c-0.055-0.871-0.661-1.408-1.708-1.408
		c-0.81,0-1.544,0.314-1.544,1.019s0.919,0.928,1.893,1.187l0.9,0.222c1.709,0.427,3.16,1.205,3.16,2.91
		c0,2.019-1.819,3.076-4.281,3.076C134.133,39.129,132.387,38.054,132.277,35.719"/>
</g>
<path fill="#676767" d="M142.564,29.122h2.555v9.821h-2.555V29.122z M142.564,25.787h2.555v2.038h-2.555V25.787z"/>
<g>
	<defs>
		<rect id="SVGID_9_" width="167.186" height="84.07"/>
	</defs>
	<clipPath id="SVGID_10_">
		<use xlink:href="#SVGID_9_"  overflow="visible"/>
	</clipPath>
	<path clip-path="url(#SVGID_10_)" fill="#676767" d="M154.177,34.032c0-1.797-0.955-3.075-2.388-3.075
		c-1.434,0-2.389,1.278-2.389,3.075c0,1.798,0.955,3.076,2.389,3.076C153.222,37.108,154.177,35.83,154.177,34.032 M146.846,34.032
		c0-2.982,2.059-5.096,4.943-5.096c2.902,0,4.941,2.113,4.941,5.096c0,2.983-2.039,5.097-4.941,5.097
		C148.904,39.129,146.846,37.016,146.846,34.032"/>
	<path clip-path="url(#SVGID_10_)" fill="#676767" d="M158.385,29.122h2.369v1.112h0.092c0.681-0.871,1.543-1.297,2.83-1.297
		c1.967,0,3.51,1.389,3.51,3.835v6.171h-2.555v-6.021c0-1.336-0.716-1.966-1.836-1.966c-1.14,0-1.856,0.63-1.856,1.966v6.021h-2.554
		V29.122z"/>
	<path clip-path="url(#SVGID_10_)" fill="#676767" d="M72.345,53.251c0-3.002,2.058-5.096,4.943-5.096
		c2.388,0,4.207,1.427,4.685,3.614h-2.646c-0.349-1.02-1.084-1.595-2.039-1.595c-1.434,0-2.389,1.297-2.389,3.076
		c0,1.798,0.955,3.076,2.389,3.076c0.955,0,1.727-0.611,2.057-1.612h2.646c-0.477,2.187-2.296,3.632-4.703,3.632
		C74.403,58.347,72.345,56.235,72.345,53.251"/>
	<path clip-path="url(#SVGID_10_)" fill="#676767" d="M85.83,52.195h4.575c-0.294-1.391-1.176-2.205-2.296-2.205
		C86.969,49.99,86.106,50.805,85.83,52.195 M92.959,53.938h-7.166c0.203,1.556,1.104,2.482,2.316,2.482
		c0.918,0,1.635-0.575,1.984-1.409h2.627c-0.532,1.909-2.223,3.336-4.611,3.336c-2.848,0-4.888-2.111-4.888-5.096
		c0-2.983,2.041-5.096,4.888-5.096c2.866,0,4.887,2.094,4.887,5.096C92.996,53.381,92.996,53.677,92.959,53.938"/>
	<path clip-path="url(#SVGID_10_)" fill="#676767" d="M94.649,48.341h2.37v1.112h0.092c0.68-0.871,1.543-1.298,2.83-1.298
		c1.966,0,3.509,1.39,3.509,3.836v6.171h-2.554v-6.023c0-1.334-0.717-1.964-1.838-1.964c-1.139,0-1.855,0.63-1.855,1.964v6.023
		h-2.554V48.341z"/>
	<path clip-path="url(#SVGID_10_)" fill="#676767" d="M104.662,50.379v-2.037h1.359v-2.503h2.555v2.503h1.911v2.037h-1.911v5.744
		h1.911v2.038h-3.069c-0.808,0-1.396-0.593-1.396-1.389v-6.394H104.662z"/>
	<path clip-path="url(#SVGID_10_)" fill="#676767" d="M114.088,52.195h4.574c-0.293-1.391-1.176-2.205-2.295-2.205
		C115.227,49.99,114.363,50.805,114.088,52.195 M121.217,53.938h-7.166c0.201,1.556,1.104,2.482,2.316,2.482
		c0.918,0,1.635-0.575,1.983-1.409h2.627c-0.532,1.909-2.224,3.336-4.61,3.336c-2.849,0-4.889-2.111-4.889-5.096
		c0-2.983,2.04-5.096,4.889-5.096c2.865,0,4.887,2.094,4.887,5.096C121.254,53.381,121.254,53.677,121.217,53.938"/>
	<path clip-path="url(#SVGID_10_)" fill="#676767" d="M124.303,48.341h3.676v2.038h-2.519v7.783h-2.554v-8.431
		C122.906,48.934,123.494,48.341,124.303,48.341"/>
	<path clip-path="url(#SVGID_10_)" fill="#676767" d="M59.848,74.119c0-3.51-1.866-6.006-4.664-6.006
		c-2.799,0-4.665,2.496-4.665,6.006c0,3.511,1.866,6.008,4.665,6.008C57.981,80.127,59.848,77.63,59.848,74.119 M45.532,74.119
		c0-5.825,4.019-9.95,9.652-9.95c5.669,0,9.652,4.125,9.652,9.95c0,5.826-3.983,9.951-9.652,9.951
		C49.55,84.07,45.532,79.945,45.532,74.119"/>
</g>
</svg>
